<?xml version="1.0" standalone="no"?><!DOCTYPE svg PUBLIC "-//W3C//DTD SVG 1.1//EN" "http://www.w3.org/Graphics/SVG/1.1/DTD/svg11.dtd"><svg t="1606463269336" class="icon" viewBox="0 0 1024 1024" version="1.1" xmlns="http://www.w3.org/2000/svg" p-id="12744" xmlns:xlink="http://www.w3.org/1999/xlink" width="16" height="16"><defs><style type="text/css"></style></defs><path d="M864 416c-41.8 0-77.4 26.7-90.5 64H636c-5.2-20.1-15.1-38.3-28.6-53.4l73-109.6c7.5 1.9 15.5 2.9 23.6 2.9 53 0 96-43 96-96s-43-96-96-96-96 43-96 96c0 21.6 7.1 41.5 19.2 57.6l-73 109.5c-13.2-4.6-27.4-7.1-42.1-7.1-14.8 0-28.9 2.5-42.1 7.1l-73-109.5c12-16 19.2-36 19.2-57.6 0-53-43-96-96-96s-96 43-96 96 43 96 96 96c8.1 0 16-1 23.6-2.9l73 109.6c-13.5 15-23.4 33.2-28.6 53.4H250.5c-13.2-37.3-48.7-64-90.5-64-53 0-96 43-96 96s43 96 96 96c41.8 0 77.4-26.7 90.5-64H388c5.2 20.1 15.1 38.3 28.6 53.4l-73 109.6c-7.6-2-15.5-3-23.6-3-53 0-96 43-96 96s43 96 96 96 96-43 96-96c0-21.6-7.1-41.5-19.2-57.6l73-109.5c13.2 4.6 27.4 7.1 42.1 7.1 14.8 0 28.9-2.5 42.1-7.1l73 109.5c-12 16-19.2 36-19.2 57.6 0 53 43 96 96 96s96-43 96-96-43-96-96-96c-8.1 0-16 1-23.6 2.9l-73-109.6c13.5-15 23.4-33.2 28.6-53.4h137.5c13.2 37.3 48.7 64 90.5 64 53 0 96-43 96-96S917 416 864 416zM512 576c-35.3 0-64-28.7-64-64s28.7-64 64-64 64 28.7 64 64-28.7 64-64 64z" p-id="12745"></path></svg>