<?xml version="1.0" standalone="no"?><!DOCTYPE svg PUBLIC "-//W3C//DTD SVG 1.1//EN" "http://www.w3.org/Graphics/SVG/1.1/DTD/svg11.dtd"><svg t="1606463349360" class="icon" viewBox="0 0 1024 1024" version="1.1" xmlns="http://www.w3.org/2000/svg" p-id="13013" xmlns:xlink="http://www.w3.org/1999/xlink" width="16" height="16"><defs><style type="text/css"></style></defs><path d="M767.711 135.4L462.284 135.4l0 54.177 0.902 0L463.186 485.52 295.478 485.52a107.703 107.703 0 0 1 3.444 27.089c0 9.357-1.198 18.434-3.444 27.089l167.708 0L463.186 839.252l-0.902 0 0 54.177 306.192 0a92.44 92.44 0 0 1-3.77700001-26.216c0-9.74700001 1.513-19.14 4.31000002-27.962L517.363 839.251l0-299.555 251.373 0a92.417 92.417 0 0 1-4.037-27.08899999 92.427 92.427 0 0 1 4.037-27.089L517.363 485.518l0-295.943 252.56400001 0a92.274 92.274 0 0 1-5.22800001-30.7c0-8.11000001 1.049-15.978 3.012-23.475z" p-id="13014"></path><path d="M295.478 485.52c-12.009-46.271-54.055-80.438-104.083-80.438-59.385 0-107.526 48.141-107.526 107.526S132.01 620.134 191.395 620.134c50.028 0 92.074-34.16600001 104.083-80.438a107.703 107.703 0 0 0 3.444-27.089c0-9.355-1.197-18.432-3.444-27.087zM768.477 893.429c11.302 38.278 46.713 66.216 88.654 66.216 51.049 0 92.431-41.383 92.431-92.431 0-51.04800001-41.383-92.431-92.431-92.431-41.301 0-76.271 27.09-88.121 64.469a92.368 92.368 0 0 0-4.31 27.962 92.404 92.404 0 0 0 3.777 26.215z m0.259-353.732c11.579 37.83 46.772 65.343 88.394 65.343 51.049 0 92.431-41.383 92.431-92.431 0-51.04800001-41.383-92.431-92.431-92.431-41.622 0-76.815 27.513-88.394 65.34300001a92.422 92.422 0 0 0-4.037 27.08899999 92.413 92.413 0 0 0 4.037 27.087z m-1.025-404.297a92.57 92.57 0 0 0-3.012 23.477 92.27 92.27 0 0 0 5.228 30.7c12.659 35.956 46.918 61.731 87.203 61.731 51.049 0 92.431-41.383 92.431-92.431s-41.383-92.431-92.43099999-92.431c-42.935 0-79.03 29.276-89.41900001 68.954z" p-id="13015"></path></svg>